<svg width="61" height="8" viewBox="0 0 61 8" fill="none" xmlns="http://www.w3.org/2000/svg">
<g id="g15">
<path id="XMLID_1775_" d="M9.18676 7.85712V4.40766C9.18676 3.08536 8.38189 2.22299 7.0021 2.22299C6.31221 2.22299 5.56483 2.45296 5.04741 3.20034C4.64497 2.56794 4.07005 2.22299 3.20769 2.22299C2.63278 2.22299 2.05787 2.39547 1.59794 3.02788V2.33798H0.390625V7.85712H1.59794V4.81009C1.59794 3.83274 2.11536 3.37281 2.92023 3.37281C3.72511 3.37281 4.12755 3.89023 4.12755 4.81009V7.85712H5.33487V4.81009C5.33487 3.83274 5.90977 3.37281 6.65715 3.37281C7.46203 3.37281 7.86447 3.89023 7.86447 4.81009V7.85712H9.18676ZM27.0665 2.33798H25.1118V0.670737H23.9045V2.33798H22.8122V3.4303H23.9045V5.95991C23.9045 7.22471 24.4219 7.9721 25.8017 7.9721C26.3191 7.9721 26.894 7.79963 27.2965 7.56967L26.9515 6.53482C26.6066 6.76478 26.2041 6.82227 25.9167 6.82227C25.3418 6.82227 25.1118 6.47734 25.1118 5.90243V3.4303H27.0665V2.33798ZM37.2999 2.22299C36.61 2.22299 36.1501 2.56795 35.8626 3.02788V2.33798H34.6553V7.85712H35.8626V4.75261C35.8626 3.83275 36.2651 3.31533 37.0125 3.31533C37.2424 3.31533 37.5299 3.37281 37.7599 3.4303L38.1048 2.28048C37.8748 2.22299 37.5299 2.22299 37.2999 2.22299ZM21.8348 2.7979C21.2599 2.39546 20.455 2.22299 19.5927 2.22299C18.2129 2.22299 17.293 2.91288 17.293 4.00521C17.293 4.92507 17.9829 5.4425 19.1902 5.61497L19.7651 5.67245C20.3975 5.78743 20.7425 5.95991 20.7425 6.24736C20.7425 6.6498 20.2825 6.93726 19.4777 6.93726C18.6728 6.93726 18.0404 6.64981 17.638 6.36235L17.0631 7.28221C17.6955 7.74214 18.5578 7.9721 19.4202 7.9721C21.0299 7.9721 21.9498 7.22473 21.9498 6.18989C21.9498 5.21254 21.2024 4.6951 20.0526 4.52263L19.4777 4.46515C18.9602 4.40766 18.5578 4.29267 18.5578 3.94772C18.5578 3.54528 18.9603 3.31533 19.5927 3.31533C20.2826 3.31533 20.9724 3.60278 21.3174 3.77525L21.8348 2.7979ZM53.9149 2.22299C53.225 2.22299 52.765 2.56795 52.4776 3.02788V2.33798H51.2703V7.85712H52.4776V4.75261C52.4776 3.83275 52.88 3.31533 53.6274 3.31533C53.8574 3.31533 54.1448 3.37281 54.3748 3.4303L54.7197 2.28048C54.4898 2.22299 54.1448 2.22299 53.9149 2.22299ZM38.5072 5.09754C38.5072 6.76478 39.6571 7.9721 41.4393 7.9721C42.2442 7.9721 42.8191 7.79964 43.394 7.33971L42.8191 6.36235C42.3591 6.7073 41.8992 6.87977 41.3818 6.87977C40.4044 6.87977 39.7146 6.18987 39.7146 5.09754C39.7146 4.0627 40.4044 3.37282 41.3818 3.31533C41.8992 3.31533 42.3591 3.4878 42.8191 3.83275L43.394 2.85539C42.8191 2.39546 42.2442 2.22299 41.4393 2.22299C39.6571 2.22299 38.5072 3.4303 38.5072 5.09754ZM49.6605 5.09754V2.33798H48.4532V3.02788C48.0508 2.51046 47.4759 2.22299 46.7285 2.22299C45.1762 2.22299 43.9689 3.4303 43.9689 5.09754C43.9689 6.76478 45.1762 7.9721 46.7285 7.9721C47.5333 7.9721 48.1083 7.68464 48.4532 7.16722V7.85712H49.6605V5.09754ZM45.2337 5.09754C45.2337 4.12019 45.8661 3.31533 46.9009 3.31533C47.8783 3.31533 48.5682 4.0627 48.5682 5.09754C48.5682 6.07489 47.8783 6.87977 46.9009 6.87977C45.8661 6.82228 45.2337 6.07489 45.2337 5.09754ZM30.8034 2.22299C29.1937 2.22299 28.0439 3.37281 28.0439 5.09754C28.0439 6.82227 29.1937 7.9721 30.8609 7.9721C31.6658 7.9721 32.4707 7.74214 33.1031 7.22472L32.5282 6.36235C32.0682 6.7073 31.4933 6.93726 30.9184 6.93726C30.171 6.93726 29.4236 6.59232 29.2512 5.61497H33.333C33.333 5.4425 33.333 5.32751 33.333 5.15504C33.3905 3.37281 32.3557 2.22299 30.8034 2.22299ZM30.8034 3.25784C31.5508 3.25784 32.0682 3.71776 32.1832 4.58012H29.3087C29.4236 3.83274 29.9411 3.25784 30.8034 3.25784ZM60.7563 5.09754V0.15332H59.549V3.02788C59.1465 2.51046 58.5716 2.22299 57.8243 2.22299C56.272 2.22299 55.0647 3.4303 55.0647 5.09754C55.0647 6.76478 56.272 7.9721 57.8243 7.9721C58.6291 7.9721 59.204 7.68464 59.549 7.16722V7.85712H60.7563V5.09754ZM56.3295 5.09754C56.3295 4.12019 56.9619 3.31533 57.9967 3.31533C58.9741 3.31533 59.664 4.0627 59.664 5.09754C59.664 6.07489 58.9741 6.87977 57.9967 6.87977C56.9619 6.82228 56.3295 6.07489 56.3295 5.09754ZM15.9707 5.09754V2.33798H14.7634V3.02788C14.361 2.51046 13.7861 2.22299 13.0387 2.22299C11.4864 2.22299 10.2791 3.4303 10.2791 5.09754C10.2791 6.76478 11.4864 7.9721 13.0387 7.9721C13.8435 7.9721 14.4185 7.68464 14.7634 7.16722V7.85712H15.9707V5.09754ZM11.4864 5.09754C11.4864 4.12019 12.1188 3.31533 13.1536 3.31533C14.131 3.31533 14.8209 4.0627 14.8209 5.09754C14.8209 6.07489 14.131 6.87977 13.1536 6.87977C12.1188 6.82228 11.4864 6.07489 11.4864 5.09754Z" fill="black"/>
</g>
</svg>
